# xmcd
#
# Track frame offsets:
#	150
#	17928
#	31228
#	46657
#	62168
#	80072
#	94376
#	113229
#	125001
#	141310
#	157189
#	169606
#	180915
#	199343
#	218078
#	235938
#	251157
#	266419
#
# Disc length: 3726 seconds
#
# Revision: 1
# Processed by: cddbd v1.5.1PL0 Copyright (c) Steve Scherf et al.
# Submitted via: audiograbber 1.83.01
#
DISCID=050e8c12
DTITLE=Various Artist - Hott Country 105
DYEAR=2004
DGENRE=Country
TTITLE0=Keith Urban - You're My Better Half
TTITLE1=Willie Nelson Feat Toby Keith - Midnight Rider
TTITLE2=Jamie O'Neal - Trying to Find Atlantis
TTITLE3=Phil Vassar - I'll Take That As A Yes
TTITLE4=Lisa Hewitt - One Of These Goodbyes
TTITLE5=Jessi ALexander - Make Me Stay Or Make Me Go
TTITLE6=Jason McCoy  - I Lie
TTITLE7=Josh Gracin - Nothin' To Lose
TTITLE8=Christy Sutherland - Freedom
TTITLE9=Andy Griggs - If Heaven
TTITLE10=Shelly Fairchild - You Don't Lie Here Anymore
TTITLE11=Tracy Lawrence - Sawdust On Her Halo
TTITLE12=Gretchen Wilson - When I Think About Cheating
TTITLE13=Miranda Lambert - Me And Charlie Talking
TTITLE14=Jamie Warren - Where's The Love
TTITLE15=Brad Cotter - I Miss Me
TTITLE16=Alan JAckson - Monday Morning Church
TTITLE17=Alison Krauss And Union Station - Restless
EXTD=
EXTT0=
EXTT1=
EXTT2=
EXTT3=
EXTT4=
EXTT5=
EXTT6=
EXTT7=
EXTT8=
EXTT9=
EXTT10=
EXTT11=
EXTT12=
EXTT13=
EXTT14=
EXTT15=
EXTT16=
EXTT17=
PLAYORDER=
